<?xml version="1.0" standalone="no"?>
<!DOCTYPE svg PUBLIC "-//W3C//DTD SVG 20010904//EN"
 "http://www.w3.org/TR/2001/REC-SVG-20010904/DTD/svg10.dtd">
<svg version="1.0" xmlns="http://www.w3.org/2000/svg"
 width="700.000000pt" height="700.000000pt" viewBox="0 0 700.000000 700.000000"
 preserveAspectRatio="xMidYMid meet">
<metadata>
Created by potrace 1.14, written by Peter Selinger 2001-2017
</metadata>
<g transform="translate(0.000000,700.000000) scale(0.100000,-0.100000)"
fill="#000000" stroke="none">
<path d="M3075 5104 c-16 -2 -73 -9 -125 -15 -223 -25 -408 -90 -635 -224 -44
-26 -93 -58 -108 -71 l-29 -24 -26 21 c-88 69 -213 73 -339 12 -88 -43 -206
-160 -248 -246 -46 -94 -69 -215 -62 -323 6 -89 36 -193 69 -238 21 -29 21
-31 4 -90 -54 -194 -81 -454 -66 -636 36 -428 121 -657 316 -855 186 -191 582
-401 911 -485 139 -36 312 -56 363 -43 28 7 46 4 102 -18 90 -37 264 -79 327
-79 57 0 118 25 127 52 5 17 21 18 227 18 239 0 345 11 516 55 250 63 425 154
613 319 95 83 151 151 193 234 110 221 94 597 -41 960 -47 126 -134 296 -191
373 -44 61 -44 61 -34 110 16 74 13 262 -5 370 -19 108 -67 263 -114 362 -28
59 -35 67 -60 67 -16 0 -44 -14 -68 -32 -39 -31 -190 -206 -228 -263 l-16 -24
-41 52 c-222 283 -507 499 -780 590 -159 54 -429 88 -552 71z m357 -48 c195
-36 382 -115 547 -234 114 -81 299 -256 386 -365 l64 -80 -37 -42 -37 -42
-185 -7 c-102 -3 -207 -5 -235 -4 -205 8 -417 -38 -611 -132 l-100 -50 -130
40 c-71 21 -158 50 -193 64 -78 31 -90 32 -36 4 71 -38 236 -97 362 -129 111
-29 125 -31 136 -16 14 18 95 52 227 95 199 65 393 99 627 109 84 3 151 9 150
13 -1 3 42 53 95 111 53 57 125 138 161 179 57 68 117 120 138 120 11 0 56
-102 94 -215 56 -166 78 -314 73 -489 l-5 -150 49 -75 c144 -219 247 -525 279
-826 19 -186 -4 -326 -78 -475 -67 -134 -243 -286 -473 -408 -156 -83 -196
-95 -495 -151 -143 -27 -572 -19 -720 14 -113 25 -207 75 -292 157 -67 65 -82
87 -152 228 -65 128 -82 172 -99 255 -50 244 -78 530 -68 704 4 63 9 118 12
123 3 4 17 -6 31 -22 39 -47 38 -30 -2 38 -52 86 -128 280 -159 401 -48 191
-45 390 7 426 15 11 18 18 10 26 -17 17 -50 -21 -64 -73 -33 -124 31 -483 116
-647 16 -31 16 -39 1 -114 -52 -256 -42 -505 29 -751 30 -103 184 -423 256
-529 58 -87 137 -157 215 -194 54 -25 177 -57 257 -68 29 -4 47 -11 47 -20 0
-23 -29 -25 -67 -3 -36 21 -37 21 -20 2 23 -28 22 -34 -9 -34 -14 0 -42 12
-61 27 -34 26 -35 26 -24 5 10 -19 9 -22 -8 -22 -33 0 -152 27 -236 54 -56 18
-103 26 -155 26 -141 0 -345 44 -537 116 -210 78 -501 248 -633 370 -116 108
-210 261 -270 442 -78 235 -96 577 -46 872 31 184 41 222 96 360 79 198 177
345 337 502 219 216 422 345 668 427 81 27 264 64 370 75 78 8 311 -3 397 -18z
m-1318 -270 l48 -28 -44 -36 c-231 -195 -417 -452 -492 -679 -10 -29 -21 -53
-26 -53 -10 0 -46 92 -60 153 -28 122 -1 312 62 428 40 77 139 168 232 215 67
34 75 36 152 32 66 -4 90 -9 128 -32z m1671 -543 c-71 -18 -227 -72 -326 -114
-101 -43 -121 -48 -155 -41 l-38 8 99 41 c120 50 220 80 317 98 71 13 148 19
103 8z m-916 -833 c-27 -17 -29 -352 -3 -565 5 -45 4 -48 -9 -35 -36 35 -46
334 -17 520 16 103 20 116 30 100 5 -9 5 -17 -1 -20z"/>
<path d="M5115 2970 c-3 -6 1 -7 9 -4 18 7 21 14 7 14 -6 0 -13 -4 -16 -10z"/>
<path d="M4880 2943 c-94 -33 -169 -104 -211 -201 -29 -67 -22 -74 11 -11 29
56 110 149 130 149 5 0 10 -20 10 -44 0 -24 3 -51 6 -60 4 -11 -13 -24 -65
-51 -72 -36 -97 -57 -38 -31 17 7 69 30 113 49 45 19 107 43 137 53 31 9 54
21 51 25 -2 5 -11 6 -19 2 -12 -4 -15 6 -15 52 0 60 3 62 47 22 29 -26 42 -14
17 14 -23 26 -74 49 -106 49 -13 -1 -43 -8 -68 -17z"/>
<path d="M5185 2920 c-3 -5 -1 -10 4 -10 6 0 11 5 11 10 0 6 -2 10 -4 10 -3 0
-8 -4 -11 -10z"/>
<path d="M3280 2672 c0 -6 9 -12 20 -15 11 -3 20 -3 20 -1 0 2 -9 8 -20 14
-11 6 -20 7 -20 2z"/>
<path d="M3625 2649 c-110 -16 -244 -75 -285 -125 -20 -22 -3 -16 42 16 48 35
176 78 257 86 l56 6 18 -62 c10 -34 17 -64 15 -65 -2 -2 -55 -7 -118 -13
l-115 -9 212 -2 c116 0 217 1 225 4 9 4 12 18 10 47 l-4 41 28 -21 c16 -11 39
-30 52 -42 16 -15 22 -17 22 -6 0 43 -152 128 -260 145 -72 12 -71 12 -155 0z"/>
<path d="M5060 2560 c-37 -13 -47 -19 -30 -19 35 -1 100 18 100 29 0 12 -3 12
-70 -10z"/>
<path d="M3258 2523 c7 -3 16 -2 19 1 4 3 -2 6 -13 5 -11 0 -14 -3 -6 -6z"/>
<path d="M4492 2399 c-7 -11 -11 -23 -9 -25 7 -7 29 24 25 36 -2 6 -9 1 -16
-11z"/>
<path d="M4390 2380 c0 -5 9 -14 20 -20 22 -12 27 -1 8 18 -14 14 -28 16 -28
2z"/>
<path d="M5023 2368 c21 -7 32 -7 40 1 8 8 0 11 -28 10 -40 -1 -40 -1 -12 -11z"/>
<path d="M4437 2313 c-10 -12 -39 -29 -65 -37 -35 -10 -43 -16 -29 -21 26 -11
63 2 101 36 29 25 38 28 55 19 23 -12 65 -5 80 13 7 9 -8 12 -58 13 -59 0 -69
-3 -84 -23z"/>
<path d="M3512 2252 c-18 -10 -29 -22 -25 -27 4 -4 3 -5 -4 -2 -16 10 -43 -2
-43 -19 0 -18 0 -18 52 5 24 10 51 28 60 40 22 26 6 27 -40 3z"/>
<path d="M3689 2130 c-18 -15 -20 -19 -8 -20 9 0 24 9 34 20 23 26 4 26 -26 0z"/>
<path d="M3475 4160 c-16 -7 -17 -9 -3 -9 9 -1 20 4 23 9 7 11 7 11 -20 0z"/>
<path d="M3433 4153 c4 -3 -1 -12 -11 -20 -15 -13 -15 -13 6 -3 19 9 23 30 5
30 -4 0 -3 -3 0 -7z"/>
<path d="M3326 4111 c-17 -6 -17 -8 -4 -14 10 -3 19 0 22 9 3 8 4 14 3 13 -1
0 -11 -4 -21 -8z"/>
</g>
</svg>
